<svg width="32" height="32" viewBox="0 0 32 32" fill="none" xmlns="http://www.w3.org/2000/svg">
  <circle cx="16" cy="16" r="15" fill="#F3F4F6" stroke="#4361EE" stroke-width="2"/>
  <!-- Rocket Body -->
  <path d="M16 6C18 6 23 9 23 16V23L16 26L9 23V16C9 9 14 6 16 6Z" fill="#4361EE" stroke="#2D3FD9" stroke-width="1"/>
  <!-- Rocket Window -->
  <circle cx="16" cy="16" r="2.5" fill="white" stroke="#2D3FD9" stroke-width="0.5"/>
  <!-- Rocket Fins -->
  <path d="M9 16V23L6 20V13L9 16Z" fill="#EF4444" stroke="#C01E1E" stroke-width="0.5"/>
  <path d="M23 16V23L26 20V13L23 16Z" fill="#EF4444" stroke="#C01E1E" stroke-width="0.5"/>
  <!-- Rocket Flames -->
  <path d="M14 26C14 28 16 30 16 30C16 30 18 28 18 26" fill="#F97316" stroke="#EA580C" stroke-width="0.5"/>
  <path d="M15 26C15 27 16 29 16 29C16 29 17 27 17 26" fill="#FBBF24" stroke="#D97706" stroke-width="0.5"/>
</svg> 